<svg xmlns="http://www.w3.org/2000/svg" width="1200" height="630" viewBox="0 0 1200 630" role="img" aria-labelledby="title desc">
  <title id="title">Two Desks</title>
  <desc id="desc">Small studio. Thoughtful apps. Makers of Tendi, launching summer 2026.</desc>
  <defs>
    <clipPath id="screenClip">
      <rect x="842" y="82" width="214" height="464" rx="34"/>
    </clipPath>
    <clipPath id="iconClip">
      <rect x="132" y="132" width="76" height="76" rx="18"/>
    </clipPath>
  </defs>
  <rect width="1200" height="630" fill="#F7F0E4"/>
  <path d="M78 96C78 73.9086 95.9086 56 118 56H728C750.091 56 768 73.9086 768 96V534C768 556.091 750.091 574 728 574H118C95.9086 574 78 556.091 78 534V96Z" fill="#FFFAF2" stroke="#D8C9B6" stroke-width="2"/>
  <rect x="132" y="92" width="246" height="12" fill="#2F6464"/>
  <rect x="152" y="104" width="12" height="42" rx="6" fill="#2F6464"/>
  <rect x="346" y="104" width="12" height="42" rx="6" fill="#2F6464"/>
  <path d="M812 74H1068C1090.09 74 1108 91.9086 1108 114V554C1108 576.091 1090.09 594 1068 594H812C789.909 594 772 576.091 772 554V114C772 91.9086 789.909 74 812 74Z" fill="#EADCC8" fill-opacity="0.72"/>
  <path d="M808 124H1088" stroke="#2F6464" stroke-width="12" stroke-linecap="square"/>
  <path d="M966 564H1080" stroke="#D49A2A" stroke-width="8" stroke-linecap="square"/>
  <rect x="832" y="72" width="234" height="484" rx="46" fill="#0D0D10"/>
  <image href="assets/screenshot-home.png" x="842" y="82" width="214" height="464" preserveAspectRatio="xMidYMid slice" clip-path="url(#screenClip)"/>
  <rect x="842" y="82" width="214" height="464" rx="34" fill="none" stroke="#FFFAF2" stroke-opacity="0.22" stroke-width="1"/>
  <image href="assets/app-icon.png" x="132" y="132" width="76" height="76" preserveAspectRatio="xMidYMid slice" clip-path="url(#iconClip)"/>
  <text x="232" y="184" fill="#211716" font-family="-apple-system, BlinkMacSystemFont, Helvetica, Arial, sans-serif" font-size="42" font-weight="800">Two Desks</text>
  <text x="132" y="290" fill="#2F6464" font-family="-apple-system, BlinkMacSystemFont, Helvetica, Arial, sans-serif" font-size="25" font-weight="800">Makers of Tendi</text>
  <text x="132" y="366" fill="#211716" font-family="Georgia, serif" font-size="74" font-weight="700">Small studio.</text>
  <text x="132" y="444" fill="#211716" font-family="Georgia, serif" font-size="74" font-weight="700">Thoughtful apps.</text>
  <text x="132" y="508" fill="#594C47" font-family="-apple-system, BlinkMacSystemFont, Helvetica, Arial, sans-serif" font-size="27">Private mobile apps, starting with Tendi.</text>
  <circle cx="140" cy="548" r="5" fill="#D49A2A"/>
  <text x="160" y="558" fill="#2F6464" font-family="-apple-system, BlinkMacSystemFont, Helvetica, Arial, sans-serif" font-size="26" font-weight="800">Launching summer 2026</text>
</svg>
